# xmcd
#
# Track frame offsets:
#	150
#	12171
#	30804
#	45178
#	63165
#	79187
#	95161
#	109977
#	129948
#
# Disc length: 1972 seconds
#
# Revision: 0
# Processed by: cddbd v1.5.2PL0 Copyright (c) Steve Scherf et al.
# Submitted via: EasyCDDAExtractor 12.0.7.1
#
DISCID=6007b209
DTITLE=Various Artist - SLURBUM and LEISURE SONGS
DYEAR=2009
DGENRE=Folk-Rock
TTITLE0=SLUR-MAGAZINE
TTITLE1=SLUR-ผู้ชาย
TTITLE2=SLUR-Rock n' roll
TTITLE3=แพร์-พิมพิศา จิราธิวัฒน์ แปลกดีนะ
TTITLE4=แคมป์-พุธพชระ แสงปุริมทิศ ลืมไปแล้ว
TTITLE5=อุ้ม-แก้วตะวัน ภุชงคสมุทท์ ปีใหม่
TTITLE6=ตุ๊กตา-จมาพร แสงทอง รู้นะ
TTITLE7=บิว-รังสรรค์ ปัญญาใจ เพลงนั้น
TTITLE8=กอล์ฟ-ประภพ ชมถาวร คือเธอคนนั้น
EXTD=
EXTT0=
EXTT1=
EXTT2=
EXTT3=
EXTT4=
EXTT5=
EXTT6=
EXTT7=
EXTT8=
PLAYORDER=
